<?xml version="1.0" encoding="UTF-8" standalone="no"?>
<!-- Created with Inkscape (http://www.inkscape.org/) -->

<svg
   width="115.2"
   height="154"
   viewBox="0 0 30.479999 40.745834"
   version="1.1"
   id="svg5"
   xml:space="preserve"
   inkscape:version="1.2.2 (732a01da63, 2022-12-09)"
   sodipodi:docname="7-clubs.svg"
   xmlns:inkscape="http://www.inkscape.org/namespaces/inkscape"
   xmlns:sodipodi="http://sodipodi.sourceforge.net/DTD/sodipodi-0.dtd"
   xmlns="http://www.w3.org/2000/svg"
   xmlns:svg="http://www.w3.org/2000/svg"><sodipodi:namedview
     id="namedview7"
     pagecolor="#ffffff"
     bordercolor="#000000"
     borderopacity="0.25"
     inkscape:showpageshadow="2"
     inkscape:pageopacity="0.0"
     inkscape:pagecheckerboard="0"
     inkscape:deskcolor="#d1d1d1"
     inkscape:document-units="mm"
     showgrid="false"
     inkscape:zoom="4.2179991"
     inkscape:cx="69.819835"
     inkscape:cy="90.09011"
     inkscape:window-width="1920"
     inkscape:window-height="1017"
     inkscape:window-x="-8"
     inkscape:window-y="-8"
     inkscape:window-maximized="1"
     inkscape:current-layer="layer1" /><defs
     id="defs2" /><g
     inkscape:label="Layer 1"
     inkscape:groupmode="layer"
     id="layer1"><rect
       style="fill:none;stroke:#000000;stroke-width:0.396875;stroke-linejoin:round;stroke-dasharray:none;stroke-opacity:1;paint-order:stroke fill markers"
       id="rect111"
       width="30.271244"
       height="40.537079"
       x="-30.469681"
       y="0.1984375"
       transform="scale(-1,1)" /><text
       xml:space="preserve"
       style="font-style:normal;font-variant:normal;font-weight:normal;font-stretch:normal;font-size:4.93889px;line-height:0;font-family:Arial;-inkscape-font-specification:Arial;fill:none;stroke:#000000;stroke-width:0.396875;stroke-linejoin:round;stroke-dasharray:none;stroke-opacity:1;paint-order:stroke fill markers"
       x="1.5760212"
       y="5.5984039"
       id="text7162"><tspan
         sodipodi:role="line"
         id="tspan7160"
         style="font-style:normal;font-variant:normal;font-weight:normal;font-stretch:normal;font-size:4.93889px;font-family:Arial;-inkscape-font-specification:Arial;stroke-width:0.396875"
         x="1.5760212"
         y="5.5984039" /></text><text
       xml:space="preserve"
       style="font-style:normal;font-variant:normal;font-weight:normal;font-stretch:normal;font-size:5.87891px;line-height:0px;font-family:Arial;-inkscape-font-specification:Arial;fill:#000000;stroke:#000000;stroke-width:0.466639;stroke-linejoin:round;stroke-dasharray:none;stroke-opacity:1;paint-order:stroke fill markers"
       x="1.334559"
       y="5.0234747"
       id="text7166"
       transform="scale(0.88921913,1.1245822)"><tspan
         sodipodi:role="line"
         id="tspan7164"
         style="font-style:normal;font-variant:normal;font-weight:normal;font-stretch:normal;font-size:5.87891px;font-family:Arial;-inkscape-font-specification:Arial;fill:#000000;stroke-width:0.466639"
         x="1.334559"
         y="5.0234747">7</tspan></text><text
       xml:space="preserve"
       style="font-style:normal;font-variant:normal;font-weight:normal;font-stretch:normal;font-size:5.87891px;line-height:0px;font-family:Arial;-inkscape-font-specification:Arial;fill:#000000;stroke:#000000;stroke-width:0.466639;stroke-linejoin:round;stroke-dasharray:none;stroke-opacity:1;paint-order:stroke fill markers"
       x="29.198721"
       y="-31.292191"
       id="text7166-0"
       transform="scale(0.88921913,-1.1245822)"><tspan
         sodipodi:role="line"
         style="font-style:normal;font-variant:normal;font-weight:normal;font-stretch:normal;font-size:5.87891px;font-family:Arial;-inkscape-font-specification:Arial;fill:#000000;stroke-width:0.466639"
         x="29.198721"
         y="-31.292191"
         id="tspan7339">7</tspan></text><path
       sodipodi:nodetypes="czcccczczc"
       id="rect3667"
       d="m 14.180197,19.425636 c -1.990023,-1.045746 -4.917281,0.201626 -4.224695,3.01546 0.674928,2.742103 3.589671,2.140341 4.597587,0.471174 -0.420489,3.164841 -1.15896,3.657556 -1.601586,4.344595 h 4.699271 c -0.476132,-0.734733 -1.340706,-1.179754 -1.847727,-4.387968 1.015632,1.666357 4.068873,2.244028 4.73405,-0.458455 0.654343,-2.658457 -2.295212,-4.172416 -4.256594,-2.968951 1.880779,-1.389346 2.556212,-5.952357 -1.00598,-5.952357 -3.597354,0 -2.997148,4.652225 -1.094326,5.936502 z"
       style="color:#000000;display:block;overflow:visible;visibility:visible;fill:#000000;fill-opacity:1;fill-rule:nonzero;stroke:#000000;stroke-width:0.0642681;stroke-linecap:butt;stroke-linejoin:miter;stroke-miterlimit:4;stroke-dashoffset:0;stroke-opacity:1;marker:none;marker-start:none;marker-mid:none;marker-end:none" /><path
       sodipodi:nodetypes="czcccczczc"
       id="rect3667-7"
       d="M 2.2963763,8.2804757 C 1.5727093,7.9123147 0.50821913,8.3514557 0.76007613,9.3420847 1.0055121,10.307458 2.0654513,10.095604 2.4319775,9.5079637 2.2790681,10.622164 2.0105246,10.795627 1.8495651,11.037503 H 3.5584435 C 3.3852992,10.778836 3.0708986,10.622164 2.8865221,9.4926947 c 0.3693317,0.5866503 1.4796353,0.7900223 1.7215253,-0.161402 0.2379505,-0.935924 -0.8346479,-1.468922 -1.5479,-1.045235 0.683941,-0.489127 0.9295606,-2.09556 -0.3658221,-2.09556 -1.3081687,0 -1.0899053,1.637841 -0.397949,2.089978 z"
       style="color:#000000;display:block;overflow:visible;visibility:visible;fill:#000000;fill-opacity:1;fill-rule:nonzero;stroke:#000000;stroke-width:0.0229954;stroke-linecap:butt;stroke-linejoin:miter;stroke-miterlimit:4;stroke-dashoffset:0;stroke-opacity:1;marker:none;marker-start:none;marker-mid:none;marker-end:none" /><path
       sodipodi:nodetypes="czcccczczc"
       id="rect3667-7-2"
       d="m 26.948376,32.306525 c -0.723667,0.368161 -1.788157,-0.07098 -1.5363,-1.061609 0.245436,-0.965373 1.305375,-0.753519 1.671902,-0.165879 -0.15291,-1.1142 -0.421453,-1.287663 -0.582413,-1.529539 h 1.708879 c -0.173145,0.258667 -0.487545,0.415339 -0.671922,1.544808 0.369332,-0.58665 1.479635,-0.790022 1.721525,0.161402 0.237951,0.935924 -0.834647,1.468922 -1.5479,1.045235 0.683941,0.489127 0.929561,2.09556 -0.365822,2.09556 -1.308168,0 -1.089905,-1.637841 -0.397949,-2.089978 z"
       style="color:#000000;display:block;overflow:visible;visibility:visible;fill:#000000;fill-opacity:1;fill-rule:nonzero;stroke:#000000;stroke-width:0.0229954;stroke-linecap:butt;stroke-linejoin:miter;stroke-miterlimit:4;stroke-dashoffset:0;stroke-opacity:1;marker:none;marker-start:none;marker-mid:none;marker-end:none" /></g></svg>
