<?xml version="1.0" encoding="UTF-8" standalone="no"?>
<!-- Created with Inkscape (http://www.inkscape.org/) -->

<svg
   width="115.2"
   height="154"
   viewBox="0 0 30.479999 40.745834"
   version="1.1"
   id="svg5"
   xml:space="preserve"
   inkscape:version="1.2.2 (732a01da63, 2022-12-09)"
   sodipodi:docname="a-hearts.svg"
   xmlns:inkscape="http://www.inkscape.org/namespaces/inkscape"
   xmlns:sodipodi="http://sodipodi.sourceforge.net/DTD/sodipodi-0.dtd"
   xmlns="http://www.w3.org/2000/svg"
   xmlns:svg="http://www.w3.org/2000/svg"><sodipodi:namedview
     id="namedview7"
     pagecolor="#ffffff"
     bordercolor="#000000"
     borderopacity="0.25"
     inkscape:showpageshadow="2"
     inkscape:pageopacity="0.0"
     inkscape:pagecheckerboard="0"
     inkscape:deskcolor="#d1d1d1"
     inkscape:document-units="mm"
     showgrid="false"
     inkscape:zoom="4.2179991"
     inkscape:cx="79.658623"
     inkscape:cy="80.844019"
     inkscape:window-width="1920"
     inkscape:window-height="1017"
     inkscape:window-x="-8"
     inkscape:window-y="-8"
     inkscape:window-maximized="1"
     inkscape:current-layer="layer1" /><defs
     id="defs2" /><g
     inkscape:label="Layer 1"
     inkscape:groupmode="layer"
     id="layer1"><rect
       style="fill:none;stroke:#000000;stroke-width:0.396875;stroke-linejoin:round;stroke-dasharray:none;stroke-opacity:1;paint-order:stroke fill markers"
       id="rect111"
       width="30.271244"
       height="40.537079"
       x="-30.469681"
       y="0.1984375"
       transform="scale(-1,1)" /><text
       xml:space="preserve"
       style="font-style:normal;font-variant:normal;font-weight:normal;font-stretch:normal;font-size:4.93889px;line-height:0;font-family:Arial;-inkscape-font-specification:Arial;fill:none;stroke:#000000;stroke-width:0.396875;stroke-linejoin:round;stroke-dasharray:none;stroke-opacity:1;paint-order:stroke fill markers"
       x="1.5760212"
       y="5.5984039"
       id="text7162"><tspan
         sodipodi:role="line"
         id="tspan7160"
         style="font-style:normal;font-variant:normal;font-weight:normal;font-stretch:normal;font-size:4.93889px;font-family:Arial;-inkscape-font-specification:Arial;stroke-width:0.396875"
         x="1.5760212"
         y="5.5984039" /></text><text
       xml:space="preserve"
       style="font-style:normal;font-variant:normal;font-weight:normal;font-stretch:normal;font-size:5.87891px;line-height:0px;font-family:Arial;-inkscape-font-specification:Arial;fill:#ff0000;stroke:#ff0000;stroke-width:0.466639;stroke-linejoin:round;stroke-dasharray:none;stroke-opacity:1;paint-order:stroke fill markers"
       x="1.7930815"
       y="4.9955854"
       id="text7166"
       transform="scale(0.88921913,1.1245822)"><tspan
         sodipodi:role="line"
         id="tspan7164"
         style="font-style:normal;font-variant:normal;font-weight:normal;font-stretch:normal;font-size:5.87891px;font-family:Arial;-inkscape-font-specification:Arial;fill:#ff0000;stroke:#ff0000;stroke-width:0.466639;stroke-opacity:1"
         x="1.7930815"
         y="4.9955854">A</tspan></text><text
       xml:space="preserve"
       style="font-style:normal;font-variant:normal;font-weight:normal;font-stretch:normal;font-size:5.87891px;line-height:0px;font-family:Arial;-inkscape-font-specification:Arial;fill:#ff0000;fill-opacity:1;stroke:#ff0000;stroke-width:0.466639;stroke-linejoin:round;stroke-dasharray:none;stroke-opacity:1;paint-order:stroke fill markers"
       x="28.846014"
       y="-31.236412"
       id="text7166-0"
       transform="scale(0.88921913,-1.1245822)"><tspan
         sodipodi:role="line"
         style="font-style:normal;font-variant:normal;font-weight:normal;font-stretch:normal;font-size:5.87891px;font-family:Arial;-inkscape-font-specification:Arial;fill:#ff0000;fill-opacity:1;stroke:#ff0000;stroke-width:0.466639;stroke-opacity:1"
         x="28.846014"
         y="-31.236412"
         id="tspan7339">A</tspan></text><path
       sodipodi:nodetypes="ccccccccccccccccccccc"
       id="path30"
       d="m 15.167523,27.248579 c -0.0107,-0.02301 -0.05671,-0.189358 -0.102237,-0.369667 -0.288541,-1.142716 -0.824184,-2.299843 -1.721189,-3.718214 -0.337003,-0.532879 -0.654207,-1.004752 -1.511939,-2.24916 -0.993149,-1.440871 -1.27763,-1.902452 -1.564897,-2.539102 -0.169638,-0.375955 -0.3454354,-0.947998 -0.4032864,-1.312292 -0.05782,-0.364084 -0.05876,-0.958907 -0.002,-1.268637 0.2308414,-1.259878 1.1684924,-2.210367 2.2897004,-2.321046 1.284427,-0.126792 2.376996,0.647627 2.951058,2.091726 l 0.12819,0.322469 0.09648,-0.254749 c 0.143357,-0.378529 0.281418,-0.634543 0.514449,-0.953971 0.593308,-0.813281 1.299416,-1.211665 2.150055,-1.213059 0.381029,-6.19e-4 0.599367,0.03712 0.924057,0.159747 0.485608,0.183399 0.851161,0.469104 1.176723,0.919696 0.848426,1.174254 0.747971,2.773994 -0.29723,4.73327 -0.243812,0.457039 -0.683721,1.133267 -1.288701,1.980993 -0.696676,0.976214 -1.037081,1.472347 -1.385592,2.019471 -0.835381,1.311452 -1.397209,2.503079 -1.706243,3.618899 -0.04714,0.170219 -0.09653,0.328831 -0.109758,0.352472 -0.03071,0.0549 -0.11231,0.05558 -0.137628,0.0011 z"
       style="fill:#ff0000;fill-opacity:1;stroke-width:0.0340645" /><path
       sodipodi:nodetypes="ccccccccccccccccccccc"
       id="path30-2"
       d="m 3.4082779,11.09777 c -0.0039,-0.0081 -0.02062,-0.06667 -0.03717,-0.130153 -0.104909,-0.40233 -0.299661,-0.809734 -0.625799,-1.3091169 -0.12253,-0.187618 -0.23786,-0.353756 -0.54972,-0.79189 C 1.8344949,8.3593054 1.7310609,8.1967909 1.6266149,7.9726378 1.5649349,7.8402707 1.5010199,7.6388645 1.4799859,7.510603 c -0.02102,-0.1281875 -0.02136,-0.3376141 -7.27e-4,-0.4466647 0.08393,-0.4435806 0.424847,-0.778231 0.832502,-0.8171991 0.466999,-0.044641 0.864242,0.2280179 1.072962,0.7364596 l 0.04661,0.1135356 0.03508,-0.089693 c 0.05212,-0.1332733 0.10232,-0.2234113 0.187047,-0.3358762 0.215718,-0.2863419 0.472449,-0.4266058 0.781729,-0.4270966 0.138536,-2.18e-4 0.217921,0.013069 0.335974,0.056244 0.17656,0.064571 0.3094696,0.1651632 0.4278392,0.3238087 0.3084756,0.413434 0.2719516,0.9766741 -0.1080685,1.6665004 -0.088647,0.1609154 -0.2485907,0.3990032 -0.4685537,0.6974734 -0.253301,0.343707 -0.377067,0.518387 -0.503781,0.711019 -0.303733,0.4617389 -0.508005,0.8812899 -0.620365,1.2741509 -0.01714,0.05993 -0.0351,0.115775 -0.03991,0.124099 -0.01117,0.01933 -0.04083,0.01957 -0.05004,3.87e-4 z"
       style="fill:#ff0000;fill-opacity:1;stroke-width:0.0121878" /><path
       sodipodi:nodetypes="ccccccccccccccccccccc"
       id="path30-2-7"
       d="m 27.235723,29.55223 c 0.0039,0.0081 0.02062,0.06667 0.03717,0.130153 0.104909,0.40233 0.299661,0.809734 0.625799,1.309117 0.12253,0.187618 0.23786,0.353756 0.54972,0.79189 0.361094,0.507305 0.464528,0.66982 0.568974,0.893973 0.06168,0.132367 0.125595,0.333773 0.146629,0.462034 0.02102,0.128188 0.02136,0.337615 7.27e-4,0.446665 -0.08393,0.443581 -0.424847,0.778231 -0.832502,0.817199 -0.466999,0.04464 -0.864242,-0.228018 -1.072962,-0.736459 l -0.04661,-0.113536 -0.03508,0.08969 c -0.05212,0.133273 -0.10232,0.223411 -0.187047,0.335876 -0.215718,0.286342 -0.472449,0.426606 -0.781729,0.427097 -0.138536,2.18e-4 -0.217921,-0.01307 -0.335974,-0.05624 -0.17656,-0.06457 -0.30947,-0.165163 -0.42784,-0.323809 -0.308475,-0.413434 -0.271951,-0.976674 0.108069,-1.6665 0.08865,-0.160916 0.248591,-0.399003 0.468554,-0.697474 0.253301,-0.343707 0.377067,-0.518387 0.503781,-0.711019 0.303733,-0.461739 0.508005,-0.88129 0.620365,-1.274151 0.01714,-0.05993 0.0351,-0.115775 0.03991,-0.124099 0.01117,-0.01933 0.04083,-0.01957 0.05004,-3.87e-4 z"
       style="fill:#ff0000;fill-opacity:1;stroke-width:0.0121878" /></g></svg>
